  0
SECTION
  2
HEADER
  9
$ACADVER
  1
AC1014
  9
$HANDSEED
  5
FFFF
  9
$MEASUREMENT
 70
     1
  0
ENDSEC
  0
SECTION
  2
TABLES
  0
TABLE
  2
VPORT
  5
8
330
0
100
AcDbSymbolTable
 70
     4
  0
VPORT
  5
2E
330
8
100
AcDbSymbolTableRecord
100
AcDbViewportTableRecord
  2
*ACTIVE
 70
     0
 10
0.0
 20
0.0
 11
1.0
 21
1.0
 12
210.0
 22
148.5
 13
0.0
 23
0.0
 14
10.0
 24
10.0
 15
10.0
 25
10.0
 16
0.0
 26
0.0
 36
1.0
 17
0.0
 27
0.0
 37
0.0
 40
341.0
 41
1.24
 42
50.0
 43
0.0
 44
0.0
 50
0.0
 51
0.0
 71
     0
 72
   100
 73
     1
 74
     3
 75
     0
 76
     0
 77
     0
 78
     0
  0
ENDTAB
  0
TABLE
  2
LTYPE
  5
5
330
0
100
AcDbSymbolTable
 70
     1
  0
LTYPE
  5
14
330
5
100
AcDbSymbolTableRecord
100
AcDbLinetypeTableRecord
  2
BYBLOCK
 70
     0
  3

 72
    65
 73
     0
 40
0.0
  0
LTYPE
  5
15
330
5
100
AcDbSymbolTableRecord
100
AcDbLinetypeTableRecord
  2
BYLAYER
 70
     0
  3

 72
    65
 73
     0
 40
0.0
  0
LTYPE
  5
16
330
5
100
AcDbSymbolTableRecord
100
AcDbLinetypeTableRecord
  2
CONTINUOUS
 70
     0
  3
Solid line
 72
    65
 73
     0
 40
0.0
  0
ENDTAB
  0
TABLE
  2
LAYER
  5
2
100
AcDbSymbolTable
 70
2
  0
LAYER
  5
50
100
AcDbSymbolTableRecord
100
AcDbLayerTableRecord
  2
0
 70
0
  6
CONTINUOUS
  0
LAYER
  5
51
100
AcDbSymbolTableRecord
100
AcDbLayerTableRecord
  2
Layer_1
 70
0
  6
CONTINUOUS
  0
ENDTAB
  0
TABLE
  2
STYLE
  5
3
330
0
100
AcDbSymbolTable
 70
     1
  0
STYLE
  5
11
330
3
100
AcDbSymbolTableRecord
100
AcDbTextStyleTableRecord
  2
STANDARD
 70
     0
 40
0.0
 41
1.0
 50
0.0
 71
     0
 42
2.5
  3
txt
  4

  0
ENDTAB
  0
TABLE
  2
VIEW
  5
6
330
0
100
AcDbSymbolTable
 70
     0
  0
ENDTAB
  0
TABLE
  2
UCS
  5
7
330
0
100
AcDbSymbolTable
 70
     0
  0
ENDTAB
  0
TABLE
  2
APPID
  5
9
330
0
100
AcDbSymbolTable
 70
     2
  0
APPID
  5
12
330
9
100
AcDbSymbolTableRecord
100
AcDbRegAppTableRecord
  2
ACAD
 70
     0
  0
ENDTAB
  0
TABLE
  2
DIMSTYLE
  5
A
330
0
100
AcDbSymbolTable
 70
     1
  0
DIMSTYLE
105
27
330
A
100
AcDbSymbolTableRecord
100
AcDbDimStyleTableRecord
  2
ISO-25
 70
     0
  3

  4

  5

  6

  7

 40
1.0
 41
2.5
 42
0.625
 43
3.75
 44
1.25
 45
0.0
 46
0.0
 47
0.0
 48
0.0
140
2.5
141
2.5
142
0.0
143
0.03937007874016
144
1.0
145
0.0
146
1.0
147
0.625
 71
     0
 72
     0
 73
     0
 74
     0
 75
     0
 76
     0
 77
     1
 78
     8
170
     0
171
     3
172
     1
173
     0
174
     0
175
     0
176
     0
177
     0
178
     0
270
     2
271
     2
272
     2
273
     2
274
     3
340
11
275
     0
280
     0
281
     0
282
     0
283
     0
284
     8
285
     0
286
     0
287
     3
288
     0
  0
ENDTAB
  0
TABLE
  2
BLOCK_RECORD
  5
1
330
0
100
AcDbSymbolTable
 70
     1
  0
BLOCK_RECORD
  5
1F
330
1
100
AcDbSymbolTableRecord
100
AcDbBlockTableRecord
  2
*MODEL_SPACE
  0
BLOCK_RECORD
  5
1B
330
1
100
AcDbSymbolTableRecord
100
AcDbBlockTableRecord
  2
*PAPER_SPACE
  0
ENDTAB
  0
ENDSEC
  0
SECTION
  2
BLOCKS
  0
BLOCK
  5
20
330
1F
100
AcDbEntity
  8
0
100
AcDbBlockBegin
  2
*MODEL_SPACE
 70
     0
 10
0.0
 20
0.0
 30
0.0
  3
*MODEL_SPACE
  1

  0
ENDBLK
  5
21
330
1F
100
AcDbEntity
  8
0
100
AcDbBlockEnd
  0
BLOCK
  5
1C
330
1B
100
AcDbEntity
 67
     1
  8
0
100
AcDbBlockBegin
  2
*PAPER_SPACE
  1

  0
ENDBLK
  5
1D
330
1B
100
AcDbEntity
 67
     1
  8
0
100
AcDbBlockEnd
  0
ENDSEC
  0
SECTION
  2
ENTITIES
  0
LWPOLYLINE
  5
100
100
AcDbEntity
  8
Layer_1
 62
7
100
AcDbPolyline
 90
54
 70
1
 10
19.019703
 20
165.741861
 30
0.0
 10
19.019703
 20
162.037694
 30
0.0
 10
15.316089
 20
162.037694
 30
0.0
 10
15.316089
 20
158.334078
 30
0.0
 10
22.723870
 20
158.334078
 30
0.0
 10
22.723870
 20
162.037694
 30
0.0
 10
33.835819
 20
162.037694
 30
0.0
 10
33.835819
 20
150.925744
 30
0.0
 10
22.723870
 20
150.925744
 30
0.0
 10
22.723870
 20
147.222128
 30
0.0
 10
33.835819
 20
147.222128
 30
0.0
 10
33.835819
 20
132.406015
 30
0.0
 10
22.723870
 20
132.406015
 30
0.0
 10
22.723870
 20
136.110181
 30
0.0
 10
15.316089
 20
136.110181
 30
0.0
 10
15.316089
 20
132.406015
 30
0.0
 10
19.019703
 20
132.406015
 30
0.0
 10
19.019703
 20
129.286686
 30
0.0
 10
19.004265
 20
129.286686
 30
0.0
 10
19.004265
 20
114.286465
 30
0.0
 10
79.992931
 20
114.286465
 30
0.0
 10
79.992931
 20
118.258522
 30
0.0
 10
77.330559
 20
117.362247
 30
0.0
 10
72.905955
 20
121.786850
 30
0.0
 10
77.330559
 20
126.210904
 30
0.0
 10
79.992931
 20
125.312974
 30
0.0
 10
79.992931
 20
129.286686
 30
0.0
 10
63.468046
 20
129.286686
 30
0.0
 10
63.468046
 20
132.406015
 30
0.0
 10
67.171663
 20
132.406015
 30
0.0
 10
67.171663
 20
136.110181
 30
0.0
 10
70.875829
 20
136.110181
 30
0.0
 10
70.875829
 20
158.334078
 30
0.0
 10
67.171663
 20
158.334078
 30
0.0
 10
67.171663
 20
162.037694
 30
0.0
 10
63.468046
 20
162.037694
 30
0.0
 10
63.468046
 20
165.741861
 30
0.0
 10
44.947766
 20
165.741861
 30
0.0
 10
44.947766
 20
162.037694
 30
0.0
 10
48.651933
 20
162.037694
 30
0.0
 10
48.651933
 20
132.406015
 30
0.0
 10
44.947766
 20
132.406015
 30
0.0
 10
44.947766
 20
129.286686
 30
0.0
 10
37.539980
 20
129.286686
 30
0.0
 10
37.539980
 20
132.406015
 30
0.0
 10
41.244147
 20
132.406015
 30
0.0
 10
41.244147
 20
147.222128
 30
0.0
 10
37.539980
 20
147.222128
 30
0.0
 10
37.539980
 20
150.925744
 30
0.0
 10
41.244147
 20
150.925744
 30
0.0
 10
41.244147
 20
162.037694
 30
0.0
 10
37.539980
 20
162.037694
 30
0.0
 10
37.539980
 20
165.741861
 30
0.0
 10
19.019703
 20
165.741861
 30
0.0
  0
LWPOLYLINE
  5
101
100
AcDbEntity
  8
Layer_1
 62
7
100
AcDbPolyline
 90
9
 70
1
 10
56.059716
 20
162.037694
 30
0.0
 10
59.763882
 20
162.037694
 30
0.0
 10
59.763882
 20
158.334078
 30
0.0
 10
63.468049
 20
158.334078
 30
0.0
 10
63.468049
 20
136.110181
 30
0.0
 10
59.763882
 20
136.110181
 30
0.0
 10
59.763882
 20
132.406015
 30
0.0
 10
56.059716
 20
132.406015
 30
0.0
 10
56.059716
 20
162.037694
 30
0.0
  0
LWPOLYLINE
  5
102
100
AcDbEntity
  8
Layer_1
 62
7
100
AcDbPolyline
 90
98
 70
1
 10
22.878739
 20
51.455391
 30
0.0
 10
22.878739
 20
47.751224
 30
0.0
 10
19.174572
 20
47.751224
 30
0.0
 10
19.174572
 20
44.047610
 30
0.0
 10
15.470407
 20
44.047610
 30
0.0
 10
15.470407
 20
40.343444
 30
0.0
 10
11.766792
 20
40.343444
 30
0.0
 10
11.766792
 20
15.000218
 30
0.0
 10
7.613936
 20
15.000218
 30
0.0
 10
7.613936
 20
10.564588
 30
0.0
 10
4.424605
 20
11.924436
 30
0.0
 10
-0.000000
 20
7.500383
 30
0.0
 10
4.424605
 20
3.075776
 30
0.0
 10
7.613936
 20
4.441136
 30
0.0
 10
7.613936
 20
-0.000003
 30
0.0
 10
185.949716
 20
-0.000003
 30
0.0
 10
185.854356
 20
51.455391
 30
0.0
 10
178.446573
 20
51.455391
 30
0.0
 10
178.446573
 20
40.343444
 30
0.0
 10
174.742407
 20
40.343444
 30
0.0
 10
174.742407
 20
44.047610
 30
0.0
 10
171.038793
 20
44.047610
 30
0.0
 10
171.038793
 20
47.751224
 30
0.0
 10
167.334627
 20
47.751224
 30
0.0
 10
167.334627
 20
51.455391
 30
0.0
 10
159.926844
 20
51.455391
 30
0.0
 10
159.926844
 20
15.000218
 30
0.0
 10
152.518510
 20
15.000218
 30
0.0
 10
152.518510
 20
18.119544
 30
0.0
 10
156.222677
 20
18.119544
 30
0.0
 10
156.222677
 20
47.751224
 30
0.0
 10
152.518510
 20
47.751224
 30
0.0
 10
152.518510
 20
51.455391
 30
0.0
 10
133.998778
 20
51.455391
 30
0.0
 10
133.998778
 20
47.751224
 30
0.0
 10
130.294611
 20
47.751224
 30
0.0
 10
130.294611
 20
18.119544
 30
0.0
 10
133.998778
 20
18.119544
 30
0.0
 10
133.998778
 20
15.000218
 30
0.0
 10
122.886831
 20
15.000218
 30
0.0
 10
122.886831
 20
18.119544
 30
0.0
 10
119.182664
 20
18.119544
 30
0.0
 10
119.182664
 20
47.751224
 30
0.0
 10
122.886831
 20
47.751224
 30
0.0
 10
122.886831
 20
51.455391
 30
0.0
 10
108.070714
 20
51.455391
 30
0.0
 10
108.070714
 20
47.751224
 30
0.0
 10
111.774881
 20
47.751224
 30
0.0
 10
111.774881
 20
18.119544
 30
0.0
 10
108.070714
 20
18.119544
 30
0.0
 10
108.070714
 20
15.000218
 30
0.0
 10
93.254598
 20
15.000218
 30
0.0
 10
93.254598
 20
18.119544
 30
0.0
 10
89.550431
 20
18.119544
 30
0.0
 10
89.550431
 20
44.047610
 30
0.0
 10
93.254598
 20
44.047610
 30
0.0
 10
93.254598
 20
40.343444
 30
0.0
 10
96.958765
 20
40.343444
 30
0.0
 10
96.958765
 20
51.455391
 30
0.0
 10
74.734868
 20
51.455391
 30
0.0
 10
74.734868
 20
40.343444
 30
0.0
 10
78.438485
 20
40.343444
 30
0.0
 10
78.438485
 20
44.047610
 30
0.0
 10
82.142651
 20
44.047610
 30
0.0
 10
82.142651
 20
18.119544
 30
0.0
 10
78.438485
 20
18.119544
 30
0.0
 10
78.438485
 20
15.000218
 30
0.0
 10
67.326535
 20
15.000218
 30
0.0
 10
67.326535
 20
25.527327
 30
0.0
 10
63.622368
 20
25.527327
 30
0.0
 10
63.622368
 20
29.231494
 30
0.0
 10
59.918752
 20
29.231494
 30
0.0
 10
59.918752
 20
36.639277
 30
0.0
 10
63.622368
 20
36.639277
 30
0.0
 10
63.622368
 20
40.343444
 30
0.0
 10
67.326535
 20
40.343444
 30
0.0
 10
67.326535
 20
51.455391
 30
0.0
 10
59.918752
 20
51.455391
 30
0.0
 10
59.918752
 20
40.343444
 30
0.0
 10
56.214585
 20
40.343444
 30
0.0
 10
56.214585
 20
36.639277
 30
0.0
 10
52.510419
 20
36.639277
 30
0.0
 10
52.510419
 20
51.455391
 30
0.0
 10
41.398472
 20
51.455391
 30
0.0
 10
41.398472
 20
47.751224
 30
0.0
 10
45.102638
 20
47.751224
 30
0.0
 10
45.102638
 20
18.119544
 30
0.0
 10
41.398472
 20
18.119544
 30
0.0
 10
41.398472
 20
15.000218
 30
0.0
 10
37.694855
 20
15.000218
 30
0.0
 10
37.694855
 20
40.343444
 30
0.0
 10
33.990689
 20
40.343444
 30
0.0
 10
33.990689
 20
44.047610
 30
0.0
 10
30.286522
 20
44.047610
 30
0.0
 10
30.286522
 20
47.751224
 30
0.0
 10
26.582355
 20
47.751224
 30
0.0
 10
26.582355
 20
51.455391
 30
0.0
 10
22.878739
 20
51.455391
 30
0.0
  0
LWPOLYLINE
  5
103
100
AcDbEntity
  8
Layer_1
 62
7
100
AcDbPolyline
 90
5
 70
1
 10
137.702394
 20
47.751224
 30
0.0
 10
148.814894
 20
47.751224
 30
0.0
 10
148.814894
 20
18.119544
 30
0.0
 10
137.702394
 20
18.119544
 30
0.0
 10
137.702394
 20
47.751224
 30
0.0
  0
LWPOLYLINE
  5
104
100
AcDbEntity
  8
Layer_1
 62
7
100
AcDbPolyline
 90
9
 70
1
 10
22.878739
 20
44.047610
 30
0.0
 10
26.582355
 20
44.047610
 30
0.0
 10
26.582355
 20
40.343444
 30
0.0
 10
30.286522
 20
40.343444
 30
0.0
 10
30.286522
 20
32.935661
 30
0.0
 10
19.174572
 20
32.935661
 30
0.0
 10
19.174572
 20
40.343444
 30
0.0
 10
22.878739
 20
40.343444
 30
0.0
 10
22.878739
 20
44.047610
 30
0.0
  0
LWPOLYLINE
  5
105
100
AcDbEntity
  8
Layer_1
 62
7
100
AcDbPolyline
 90
9
 70
1
 10
167.334627
 20
36.639277
 30
0.0
 10
171.038793
 20
36.639277
 30
0.0
 10
171.038793
 20
32.935661
 30
0.0
 10
174.742407
 20
32.935661
 30
0.0
 10
174.742407
 20
29.231494
 30
0.0
 10
178.446573
 20
29.231494
 30
0.0
 10
178.446573
 20
15.000218
 30
0.0
 10
167.334627
 20
15.000218
 30
0.0
 10
167.334627
 20
36.639277
 30
0.0
  0
LWPOLYLINE
  5
106
100
AcDbEntity
  8
Layer_1
 62
7
100
AcDbPolyline
 90
5
 70
1
 10
19.174572
 20
29.231494
 30
0.0
 10
30.286522
 20
29.231494
 30
0.0
 10
30.286522
 20
15.000218
 30
0.0
 10
19.174572
 20
15.000218
 30
0.0
 10
19.174572
 20
29.231494
 30
0.0
  0
LWPOLYLINE
  5
107
100
AcDbEntity
  8
Layer_1
 62
7
100
AcDbPolyline
 90
7
 70
1
 10
52.510419
 20
29.231494
 30
0.0
 10
56.214585
 20
29.231494
 30
0.0
 10
56.214585
 20
25.527327
 30
0.0
 10
59.918752
 20
25.527327
 30
0.0
 10
59.918752
 20
15.000218
 30
0.0
 10
52.510419
 20
15.000218
 30
0.0
 10
52.510419
 20
29.231494
 30
0.0
  0
LWPOLYLINE
  5
108
100
AcDbEntity
  8
Layer_1
 62
7
100
AcDbPolyline
 90
39
 70
1
 10
107.042364
 20
165.741861
 30
0.0
 10
107.042364
 20
162.037694
 30
0.0
 10
110.746531
 20
162.037694
 30
0.0
 10
110.746531
 20
132.406015
 30
0.0
 10
107.042364
 20
132.406015
 30
0.0
 10
107.042364
 20
129.286686
 30
0.0
 10
101.940867
 20
129.286686
 30
0.0
 10
101.940867
 20
124.932638
 30
0.0
 10
98.834769
 20
126.210904
 30
0.0
 10
94.410716
 20
121.786850
 30
0.0
 10
98.834769
 20
117.362247
 30
0.0
 10
101.940867
 20
118.638309
 30
0.0
 10
101.940867
 20
114.286465
 30
0.0
 10
167.192068
 20
114.286465
 30
0.0
 10
167.192068
 20
118.485071
 30
0.0
 10
164.255207
 20
117.362247
 30
0.0
 10
159.830611
 20
121.786850
 30
0.0
 10
164.255207
 20
126.210904
 30
0.0
 10
167.192068
 20
125.089734
 30
0.0
 10
167.192068
 20
129.286686
 30
0.0
 10
155.194321
 20
129.286686
 30
0.0
 10
155.194321
 20
165.741861
 30
0.0
 10
147.786547
 20
165.741861
 30
0.0
 10
147.786547
 20
154.629911
 30
0.0
 10
144.082380
 20
154.629911
 30
0.0
 10
144.082380
 20
158.334078
 30
0.0
 10
140.378764
 20
158.334078
 30
0.0
 10
140.378764
 20
162.037694
 30
0.0
 10
136.674597
 20
162.037694
 30
0.0
 10
136.674597
 20
165.741861
 30
0.0
 10
129.266814
 20
165.741861
 30
0.0
 10
129.266814
 20
129.286686
 30
0.0
 10
121.858481
 20
129.286686
 30
0.0
 10
121.858481
 20
132.406015
 30
0.0
 10
118.154314
 20
132.406015
 30
0.0
 10
118.154314
 20
162.037694
 30
0.0
 10
121.858481
 20
162.037694
 30
0.0
 10
121.858481
 20
165.741861
 30
0.0
 10
107.042364
 20
165.741861
 30
0.0
  0
LWPOLYLINE
  5
109
100
AcDbEntity
  8
Layer_1
 62
7
100
AcDbPolyline
 90
9
 70
1
 10
136.674597
 20
150.925744
 30
0.0
 10
140.378764
 20
150.925744
 30
0.0
 10
140.378764
 20
147.222128
 30
0.0
 10
144.082380
 20
147.222128
 30
0.0
 10
144.082380
 20
143.517961
 30
0.0
 10
147.786547
 20
143.517961
 30
0.0
 10
147.786547
 20
129.286686
 30
0.0
 10
136.674597
 20
129.286686
 30
0.0
 10
136.674597
 20
150.925744
 30
0.0
  0
LWPOLYLINE
  5
10a
100
AcDbEntity
  8
Layer_1
 62
7
100
AcDbPolyline
 90
111
 70
1
 10
21.461842
 20
108.553614
 30
0.0
 10
21.461842
 20
104.849447
 30
0.0
 10
25.166009
 20
104.849447
 30
0.0
 10
25.166009
 20
75.217769
 30
0.0
 10
21.461842
 20
75.217769
 30
0.0
 10
21.461842
 20
72.098440
 30
0.0
 10
14.071698
 20
72.098440
 30
0.0
 10
14.071698
 20
68.204657
 30
0.0
 10
11.514059
 20
69.022659
 30
0.0
 10
7.089456
 20
64.598606
 30
0.0
 10
11.514059
 20
60.174001
 30
0.0
 10
14.071698
 20
60.995310
 30
0.0
 10
14.071698
 20
57.098219
 30
0.0
 10
178.860263
 20
57.098219
 30
0.0
 10
178.860263
 20
61.337618
 30
0.0
 10
175.876534
 20
60.174001
 30
0.0
 10
171.452480
 20
64.598606
 30
0.0
 10
175.876534
 20
69.022659
 30
0.0
 10
178.860263
 20
67.857942
 30
0.0
 10
178.860263
 20
72.098440
 30
0.0
 10
165.918280
 20
72.098440
 30
0.0
 10
165.918280
 20
82.625549
 30
0.0
 10
162.214114
 20
82.625549
 30
0.0
 10
162.214114
 20
86.329716
 30
0.0
 10
158.509947
 20
86.329716
 30
0.0
 10
158.509947
 20
93.737501
 30
0.0
 10
162.214114
 20
93.737501
 30
0.0
 10
162.214114
 20
97.441664
 30
0.0
 10
165.918280
 20
97.441664
 30
0.0
 10
165.918280
 20
108.553614
 30
0.0
 10
158.509947
 20
108.553614
 30
0.0
 10
158.509947
 20
97.441664
 30
0.0
 10
154.806331
 20
97.441664
 30
0.0
 10
154.806331
 20
93.737501
 30
0.0
 10
151.102164
 20
93.737501
 30
0.0
 10
151.102164
 20
108.553614
 30
0.0
 10
139.990214
 20
108.553614
 30
0.0
 10
139.990214
 20
104.849447
 30
0.0
 10
143.693831
 20
104.849447
 30
0.0
 10
143.693831
 20
75.217769
 30
0.0
 10
139.990214
 20
75.217769
 30
0.0
 10
139.990214
 20
72.098440
 30
0.0
 10
132.581881
 20
72.098440
 30
0.0
 10
132.581881
 20
75.217769
 30
0.0
 10
136.286048
 20
75.217769
 30
0.0
 10
136.286048
 20
82.625549
 30
0.0
 10
132.581881
 20
82.625549
 30
0.0
 10
132.581881
 20
78.921936
 30
0.0
 10
128.878267
 20
78.921936
 30
0.0
 10
128.878267
 20
75.217769
 30
0.0
 10
121.469934
 20
75.217769
 30
0.0
 10
121.469934
 20
78.921936
 30
0.0
 10
117.766318
 20
78.921936
 30
0.0
 10
117.766318
 20
101.145831
 30
0.0
 10
121.469934
 20
101.145831
 30
0.0
 10
121.469934
 20
104.849447
 30
0.0
 10
128.878267
 20
104.849447
 30
0.0
 10
128.878267
 20
101.145831
 30
0.0
 10
132.581881
 20
101.145831
 30
0.0
 10
132.581881
 20
97.441664
 30
0.0
 10
136.286048
 20
97.441664
 30
0.0
 10
136.286048
 20
104.849447
 30
0.0
 10
132.581881
 20
104.849447
 30
0.0
 10
132.581881
 20
108.553614
 30
0.0
 10
117.766318
 20
108.553614
 30
0.0
 10
117.766318
 20
104.849447
 30
0.0
 10
114.062151
 20
104.849447
 30
0.0
 10
114.062151
 20
101.145831
 30
0.0
 10
110.357984
 20
101.145831
 30
0.0
 10
110.357984
 20
78.921936
 30
0.0
 10
114.062151
 20
78.921936
 30
0.0
 10
114.062151
 20
75.217769
 30
0.0
 10
117.766318
 20
75.217769
 30
0.0
 10
117.766318
 20
72.098440
 30
0.0
 10
102.950201
 20
72.098440
 30
0.0
 10
102.950201
 20
75.217769
 30
0.0
 10
106.654368
 20
75.217769
 30
0.0
 10
106.654368
 20
108.553614
 30
0.0
 10
99.246035
 20
108.553614
 30
0.0
 10
99.246035
 20
75.217769
 30
0.0
 10
88.134088
 20
75.217769
 30
0.0
 10
88.134088
 20
108.553614
 30
0.0
 10
80.726305
 20
108.553614
 30
0.0
 10
80.726305
 20
75.217769
 30
0.0
 10
84.429921
 20
75.217769
 30
0.0
 10
84.429921
 20
72.098440
 30
0.0
 10
77.022138
 20
72.098440
 30
0.0
 10
77.022138
 20
86.329716
 30
0.0
 10
73.317972
 20
86.329716
 30
0.0
 10
73.317972
 20
93.737501
 30
0.0
 10
77.022138
 20
93.737501
 30
0.0
 10
77.022138
 20
104.849447
 30
0.0
 10
73.317972
 20
104.849447
 30
0.0
 10
73.317972
 20
108.553614
 30
0.0
 10
51.094072
 20
108.553614
 30
0.0
 10
51.094072
 20
104.849447
 30
0.0
 10
54.798239
 20
104.849447
 30
0.0
 10
54.798239
 20
75.217769
 30
0.0
 10
51.094072
 20
75.217769
 30
0.0
 10
51.094072
 20
72.098440
 30
0.0
 10
39.982125
 20
72.098440
 30
0.0
 10
39.982125
 20
75.217769
 30
0.0
 10
43.686292
 20
75.217769
 30
0.0
 10
43.686292
 20
78.921936
 30
0.0
 10
47.389906
 20
78.921936
 30
0.0
 10
47.389906
 20
101.145831
 30
0.0
 10
43.686292
 20
101.145831
 30
0.0
 10
43.686292
 20
104.849447
 30
0.0
 10
39.982125
 20
104.849447
 30
0.0
 10
39.982125
 20
108.553614
 30
0.0
 10
21.461842
 20
108.553614
 30
0.0
  0
LWPOLYLINE
  5
10b
100
AcDbEntity
  8
Layer_1
 62
7
100
AcDbPolyline
 90
9
 70
1
 10
32.574342
 20
104.849447
 30
0.0
 10
36.277959
 20
104.849447
 30
0.0
 10
36.277959
 20
101.145831
 30
0.0
 10
39.982125
 20
101.145831
 30
0.0
 10
39.982125
 20
78.921936
 30
0.0
 10
36.277959
 20
78.921936
 30
0.0
 10
36.277959
 20
75.217769
 30
0.0
 10
32.574342
 20
75.217769
 30
0.0
 10
32.574342
 20
104.849447
 30
0.0
  0
LWPOLYLINE
  5
10c
100
AcDbEntity
  8
Layer_1
 62
7
100
AcDbPolyline
 90
5
 70
1
 10
62.206022
 20
104.849447
 30
0.0
 10
69.614355
 20
104.849447
 30
0.0
 10
69.614355
 20
93.737501
 30
0.0
 10
62.206022
 20
93.737501
 30
0.0
 10
62.206022
 20
104.849447
 30
0.0
  0
LWPOLYLINE
  5
10d
100
AcDbEntity
  8
Layer_1
 62
7
100
AcDbPolyline
 90
7
 70
1
 10
62.206022
 20
90.033883
 30
0.0
 10
65.910189
 20
90.033883
 30
0.0
 10
65.910189
 20
86.329716
 30
0.0
 10
69.614355
 20
86.329716
 30
0.0
 10
69.614355
 20
72.098440
 30
0.0
 10
62.206022
 20
72.098440
 30
0.0
 10
62.206022
 20
90.033883
 30
0.0
  0
LWPOLYLINE
  5
10e
100
AcDbEntity
  8
Layer_1
 62
7
100
AcDbPolyline
 90
7
 70
1
 10
151.102164
 20
86.329716
 30
0.0
 10
154.806331
 20
86.329716
 30
0.0
 10
154.806331
 20
82.625549
 30
0.0
 10
158.509947
 20
82.625549
 30
0.0
 10
158.509947
 20
72.098440
 30
0.0
 10
151.102164
 20
72.098440
 30
0.0
 10
151.102164
 20
86.329716
 30
0.0
  0
ENDSEC
  0
SECTION
  2
OBJECTS
  0
DICTIONARY
  5
C
330
0
100
AcDbDictionary
  3
ACAD_GROUP
350
D
  3
ACAD_MLINESTYLE
350
17
  0
DICTIONARY
  5
D
330
C
100
AcDbDictionary
  0
DICTIONARY
  5
1A
330
C
100
AcDbDictionary
  0
DICTIONARY
  5
17
330
C
100
AcDbDictionary
  3
STANDARD
350
18
  0
DICTIONARY
  5
19
330
C
100
AcDbDictionary
  0
ENDSEC
  0
EOF
